<?xml version="1.0" standalone="no"?>
<!DOCTYPE svg PUBLIC "-//W3C//DTD SVG 20010904//EN"
 "http://www.w3.org/TR/2001/REC-SVG-20010904/DTD/svg10.dtd">
<svg version="1.0" xmlns="http://www.w3.org/2000/svg"
 width="78.000000pt" height="78.000000pt" viewBox="0 0 78.000000 78.000000"
 preserveAspectRatio="xMidYMid meet">
<metadata>
Created by potrace 1.11, written by Peter Selinger 2001-2013
</metadata>
<g transform="translate(0.000000,78.000000) scale(0.100000,-0.100000)"
fill="#000000" stroke="none">
<path d="M16 764 c-14 -13 -16 -61 -16 -374 0 -313 2 -361 16 -374 13 -14 61
-16 374 -16 313 0 361 2 374 16 14 13 16 61 16 374 0 313 -2 361 -16 374 -13
14 -61 16 -374 16 -313 0 -361 -2 -374 -16z m709 -33 c11 -1 13 -667 2 -678
-5 -5 -532 -8 -657 -4 l-25 1 1 336 c0 226 4 338 11 342 8 5 611 8 668 3z"/>
<path d="M186 601 c-29 -17 -51 -63 -42 -86 10 -26 49 -14 66 20 31 62 90 31
90 -48 0 -37 -2 -39 -64 -66 -35 -16 -71 -39 -80 -52 -19 -27 -21 -101 -5
-148 27 -77 163 -82 197 -6 8 17 12 82 12 183 -1 138 -3 160 -19 179 -36 43
-106 54 -155 24z m98 -372 c-35 -39 -73 -20 -80 40 -7 60 2 78 49 100 l42 19
3 -70 c2 -55 -1 -74 -14 -89z"/>
<path d="M443 601 c-20 -13 -34 -31 -38 -51 -8 -35 -4 -42 26 -47 15 -2 24 5
32 27 23 62 97 42 97 -25 0 -37 -19 -57 -78 -80 -70 -29 -82 -52 -82 -166 l0
-99 110 0 110 0 0 25 c0 27 0 27 -95 29 l-60 1 -1 55 c0 82 4 89 62 116 29 13
62 36 73 50 24 30 28 88 9 129 -24 53 -106 71 -165 36z"/>
</g>
</svg>
